<svg id="Capa_1" enable-background="new 0 0 512.001 512.001" height="512" viewBox="0 0 512.001 512.001" width="512" xmlns="http://www.w3.org/2000/svg"><g id="XMLID_829_"><path id="XMLID_2020_" d="m226.001 200.655h-45.849c-33.797 0-61.194 27.398-61.194 61.194v63h100.208 173.879v-63c0-33.797-27.398-61.194-61.194-61.194h-46.349z" fill="#ffcb7c"/><g id="XMLID_2089_"><path id="XMLID_2090_" d="m316.164 72.652v40.274c0 33.136-26.863 59.998-60 59.998-33.137 0-60-26.862-60-59.998v-40.274z" fill="#f2d1a5"/></g><path id="XMLID_2088_" d="m284.001 169.857v32.404c0 15.464-12.536 28-28 28-15.464 0-28-12.536-28-28v-32.404z" fill="#f2d1a5"/><path id="XMLID_1326_" d="m280.398 10h-48.469c-19.753 0-35.765 16.013-35.765 35.765v38.078h120v-38.078c0-19.752-16.013-35.765-35.766-35.765z" fill="#91def5"/><path id="XMLID_1788_" d="m131.667 339.758-73.76-61.644-.044-.613v-111.833c0-13.213-10.712-23.925-23.925-23.925h-.011c-13.214 0-23.926 10.712-23.925 23.926l.011 195.717c.001 23.583 6.526 46.705 18.854 66.809l45.255 73.806h114.888v-39.593c-.002-47.359-21.003-92.28-57.343-122.65z" fill="#ffbf9e"/><path id="XMLID_1748_" d="m380.334 339.758 73.76-61.644.044-.613v-111.833c0-13.213 10.712-23.925 23.925-23.925h.011c13.214 0 23.926 10.712 23.925 23.926l-.011 195.717c-.001 23.583-6.526 46.705-18.854 66.809l-45.255 73.806h-114.886v-39.593c0-47.359 21.001-92.28 57.341-122.65z" fill="#ffbf9e"/><g id="XMLID_475_"><path id="XMLID_509_" d="m502.065 141.68c-6.407-6.408-14.927-9.937-24.001-9.937-18.707 0-33.926 15.219-33.926 33.925v107.734l-41.094 34.343v-45.896c0-39.257-31.938-71.194-71.195-71.194h-37.849v-18.885c19.329-12.471 32.163-34.18 32.163-58.844v-19.082h42.837c5.522 0 10-4.477 10-10s-4.478-10-10-10h-42.837v-28.078c.001-25.236-20.529-45.766-45.765-45.766h-48.469c-25.235 0-45.766 20.53-45.766 45.766v67.16c0 24.525 12.689 46.131 31.837 58.635v19.094h-37.849c-39.257 0-71.195 31.938-71.195 71.194v45.896l-41.094-34.343v-107.734c0-18.707-15.219-33.925-33.938-33.925-9.063 0-17.582 3.529-23.989 9.937s-9.935 14.927-9.934 23.989l.011 195.717c.001 25.439 7.03 50.35 20.328 72.036l45.256 73.806c1.888 3.077 5.172 4.773 8.535 4.773 1.782 0 3.587-.476 5.218-1.476 4.708-2.888 6.185-9.045 3.298-13.753l-45.257-73.805c-11.368-18.539-17.378-39.834-17.379-61.582l-.002-37.589 70.087 86.41c3.479 4.29 9.776 4.946 14.066 1.467 4.289-3.479 4.945-9.776 1.467-14.066l-74.458-91.799c-2.852-3.515-3.867-8.052-2.788-12.446 1.08-4.396 4.083-7.945 8.239-9.738 4.996-2.155 10.693-1.328 14.868 2.161l73.764 61.646c34.161 28.55 53.754 70.457 53.754 114.978v39.591c0 5.522 4.478 10 10 10s10-4.478 10-10v-39.593c0-49.046-20.982-95.291-57.71-127.559h69.703c5.522 0 10-4.478 10-10s-4.478-10-10-10h-82.044v-53c0-28.229 22.966-51.194 51.195-51.194h38.794c3.833 16.926 18.986 29.606 37.054 29.606s33.222-12.68 37.054-29.606h38.794c28.229 0 51.195 22.966 51.195 51.194v53h-82.044c-5.522 0-10 4.478-10 10s4.478 10 10 10h69.703c-36.728 32.268-57.71 78.512-57.71 127.559v39.593c0 5.522 4.478 10 10 10s10-4.478 10-10v-39.593c0-44.521 19.593-86.428 53.754-114.978l73.764-61.646c4.175-3.489 9.874-4.317 14.868-2.161 4.156 1.793 7.159 5.343 8.239 9.738 1.079 4.395.063 8.932-2.788 12.446l-74.458 91.799c-3.479 4.29-2.822 10.587 1.467 14.066 4.291 3.479 10.587 2.822 14.066-1.467l70.087-86.41-.002 37.59c-.001 21.747-6.011 43.042-17.379 61.581l-45.256 73.806c-2.887 4.708-1.41 10.865 3.298 13.753 1.631 1 3.436 1.477 5.218 1.476 3.363 0 6.647-1.696 8.535-4.773l45.256-73.806c13.298-21.687 20.327-46.597 20.328-72.035l.011-195.718c.002-9.061-3.528-17.58-9.935-23.988zm-473.368 123.58c-3.206 1.384-6.119 3.208-8.69 5.391l-.006-104.983c0-3.72 1.448-7.217 4.078-9.847s6.127-4.079 9.858-4.079c7.679 0 13.926 6.247 13.926 13.925v97.221c-6.348-1.043-12.98-.298-19.166 2.372zm177.467-219.494c0-14.207 11.559-25.766 25.766-25.766h48.469c14.207 0 25.766 11.559 25.766 25.766v28.078h-100v-28.078zm0 67.16v-19.082h100v19.082c0 27.569-22.43 49.998-50 49.998s-50-22.429-50-49.998zm49.837 107.335c-9.925 0-18-8.075-18-18v-21.741c5.796 1.559 11.882 2.404 18.163 2.404 6.163 0 12.139-.808 17.837-2.311v21.648c0 9.926-8.075 18-18 18zm227.303 44.999c-6.186-2.67-12.818-3.415-19.166-2.372v-97.221c0-7.678 6.247-13.925 13.938-13.925 3.72 0 7.217 1.449 9.847 4.079s4.078 6.127 4.078 9.847l-.006 104.983c-2.571-2.182-5.485-4.007-8.691-5.391z"/><path id="XMLID_514_" d="m256.001 314.85c-2.641 0-5.21 1.07-7.07 2.931-1.86 1.859-2.93 4.439-2.93 7.069s1.069 5.21 2.93 7.07 4.44 2.93 7.07 2.93 5.21-1.069 7.069-2.93c1.86-1.86 2.931-4.44 2.931-7.07s-1.07-5.21-2.931-7.069c-1.859-1.861-4.439-2.931-7.069-2.931z"/></g></g></svg>